<?xml version="1.0" standalone="no"?>
<!DOCTYPE svg PUBLIC "-//W3C//DTD SVG 20010904//EN"
 "http://www.w3.org/TR/2001/REC-SVG-20010904/DTD/svg10.dtd">
<svg version="1.0" xmlns="http://www.w3.org/2000/svg"
 width="512.000000pt" height="512.000000pt" viewBox="0 0 512.000000 512.000000"
 preserveAspectRatio="xMidYMid meet">
<metadata>
Created by potrace 1.11, written by Peter Selinger 2001-2013
</metadata>
<g transform="translate(0.000000,512.000000) scale(0.100000,-0.100000)"
fill="#000000" stroke="none">
<path d="M2210 3803 l0 -378 -263 263 c-144 144 -266 262 -270 262 -4 0 -121
-113 -258 -251 l-251 -252 266 -266 266 -266 -369 3 c-305 2 -370 0 -380 -11
-8 -11 -11 -111 -9 -363 l3 -349 382 0 382 0 -270 -269 c-148 -148 -269 -270
-269 -272 0 -3 504 -504 507 -504 2 0 122 120 268 267 l265 268 0 -378 0 -377
365 0 365 0 -2 375 -3 375 267 -267 268 -268 255 255 255 255 -267 267 -268
268 375 2 375 3 0 360 0 360 -378 0 -377 0 265 265 c146 145 265 267 265 270
0 8 -494 500 -503 500 -4 0 -126 -119 -270 -264 l-262 -264 0 377 0 376 -362
3 -363 2 0 -377z"/>
</g>
</svg>
