<svg version="1" xmlns="http://www.w3.org/2000/svg" width="682.667" height="682.667" viewBox="0 0 512.000000 512.000000"><path d="M223 137.2v36.3l-25.3-25.3C183.9 134.4 172 123 171.5 123c-.6 0-11.8 10.7-24.9 23.9l-23.9 23.9 25.7 25.8c14.1 14.3 25.6 25.9 25.6 25.9h-72.5l-.3 34.2-.2 34.3h73.5l-26 26-26 26 24.3 24.2 24.2 24.3 26-26 26-26V413l34.3-.2 34.2-.3.3-36 .2-36 25.5 25.5 25.5 25.5 24-24c13.2-13.2 24-24.2 24-24.5 0-.3-11.5-12.1-25.5-26.3L340.1 291l36.5-.2 36.5-.3-.1-33.3V223c0-.6-12.8-1-36.2-1h-36.3l25.3-25.3c13.8-13.8 25.2-25.5 25.2-25.8 0-.9-46.9-47.9-47.8-47.9-.4 0-12.1 11.4-25.9 25.2L292 173.5V101h-69v36.2z"/></svg>